<?xml version="1.0" encoding="UTF-8" standalone="no"?>
<!-- Created with Inkscape (http://www.inkscape.org/) -->

<svg
   width="512"
   height="512"
   viewBox="0 0 512 512"
   version="1.1"
   id="svg5"
   inkscape:version="1.1.2 (b8e25be833, 2022-02-05)"
   sodipodi:docname="rext-symbol-round.svg"
   inkscape:export-filename="F:\Takkun\Rext\logo\png\rext-symbol-round.png"
   inkscape:export-xdpi="96"
   inkscape:export-ydpi="96"
   xmlns:inkscape="http://www.inkscape.org/namespaces/inkscape"
   xmlns:sodipodi="http://sodipodi.sourceforge.net/DTD/sodipodi-0.dtd"
   xmlns="http://www.w3.org/2000/svg"
   xmlns:svg="http://www.w3.org/2000/svg">
  <sodipodi:namedview
     id="namedview7"
     pagecolor="#505050"
     bordercolor="#eeeeee"
     borderopacity="1"
     inkscape:pageshadow="0"
     inkscape:pageopacity="0"
     inkscape:pagecheckerboard="0"
     inkscape:document-units="px"
     showgrid="false"
     inkscape:zoom="1"
     inkscape:cx="253"
     inkscape:cy="231.5"
     inkscape:window-width="1920"
     inkscape:window-height="991"
     inkscape:window-x="-9"
     inkscape:window-y="-9"
     inkscape:window-maximized="1"
     inkscape:current-layer="layer1">
    <inkscape:grid
       type="xygrid"
       id="grid824" />
  </sodipodi:namedview>
  <defs
     id="defs2" />
  <g
     inkscape:label="Layer 1"
     inkscape:groupmode="layer"
     id="layer1">
    <path
       style="fill:#333333;stroke-width:8.629"
       id="path1865"
       sodipodi:type="arc"
       sodipodi:cx="6.9127113e-06"
       sodipodi:cy="-362.03867"
       sodipodi:rx="256"
       sodipodi:ry="256"
       sodipodi:start="3.1415927"
       sodipodi:end="0"
       sodipodi:arc-type="slice"
       d="M -255.99999,-362.03867 A 256,256 0 0 1 6.9127113e-6,-618.03867 256,256 0 0 1 256.00001,-362.03867 H 6.9127113e-6 Z"
       transform="rotate(135)" />
    <text
       xml:space="preserve"
       style="font-size:40px;line-height:1.25;font-family:sans-serif;-inkscape-font-specification:sans-serif"
       x="235"
       y="140"
       id="text6441"><tspan
         sodipodi:role="line"
         id="tspan6439"
         x="235"
         y="140" /></text>
    <path
       style="fill:#1a1a1a;stroke-width:8.629"
       id="path1466"
       sodipodi:type="arc"
       sodipodi:cx="-6.9127113e-06"
       sodipodi:cy="362.03867"
       sodipodi:rx="256"
       sodipodi:ry="256"
       sodipodi:start="3.1415927"
       sodipodi:end="0"
       sodipodi:arc-type="slice"
       d="M -256.00001,362.03867 A 256,256 0 0 1 -6.9127113e-6,106.03867 256,256 0 0 1 255.99999,362.03867 H -6.9127113e-6 Z"
       transform="rotate(-45)" />
    <g
       id="g1214">
      <g
         id="g1198">
        <g
           id="g5323">
          <path
             d="M 424.83682,318.869 H 382.515 l -21.743,-43.486 -46.51826,-10e-5 V 318.869 H 276.837 l -2.3e-4,-185.73801 h 95.39643 c 15.05668,0 28.37173,3.08999 39.94514,9.26997 11.68578,6.06761 20.61866,14.55104 26.79864,25.45028 6.29235,10.78687 9.43852,23.14683 9.43852,37.07988 0,16.85449 -4.55071,30.95609 -13.65214,42.30478 -8.98906,11.23633 -20.73149,18.87703 -35.22636,22.9221 z M 411.16707,205.26821 c 0,-12.02287 -3.82035,-21.46139 -11.46105,-28.31555 -7.52834,-6.96652 -17.64104,-10.44978 -30.33809,-10.44978 h -55.11419 v 77.02503 h 55.11419 c 12.58469,0 22.69738,-3.42708 30.33809,-10.28124 7.6407,-6.85416 11.46105,-16.18031 11.46105,-27.97846 z"
             style="font-size:345.18px;line-height:1.25;font-family:'DIN Medium';-inkscape-font-specification:'DIN Medium, ';fill:#ffffff;fill-opacity:1;stroke-width:8.62948"
             id="path17573"
             sodipodi:nodetypes="cccccccsccscccscsccsss" />
          <path
             style="fill:#ffffff;stroke:none;stroke-width:0.982023px;stroke-linecap:butt;stroke-linejoin:miter;stroke-opacity:1;fill-opacity:1"
             d="m 276.83677,378.869 h 37.41697 v -10 H 277.25 Z"
             id="path1200" />
          <path
             style="fill:#ffffff;stroke:none;stroke-width:0.982023px;stroke-linecap:butt;stroke-linejoin:miter;stroke-opacity:1;fill-opacity:1"
             d="m 276.83677,358.869 h 37.41697 v -10 H 277.25 Z"
             id="path1548" />
          <path
             style="fill:#ffffff;stroke:none;stroke-width:0.982023px;stroke-linecap:butt;stroke-linejoin:miter;stroke-opacity:1;fill-opacity:1"
             d="m 276.83677,338.869 h 37.41697 v -10 H 277.25 Z"
             id="path1550" />
          <path
             style="fill:#ffffff;fill-opacity:1;stroke:none;stroke-width:1px;stroke-linecap:butt;stroke-linejoin:miter;stroke-opacity:1"
             d="m 456.00002,378.86948 -43.48502,-4.8e-4 -5.0001,-10 h 43.29124 z"
             id="path4328"
             sodipodi:nodetypes="ccccc" />
          <path
             style="fill:#ffffff;fill-opacity:1;stroke:none;stroke-width:1px;stroke-linecap:butt;stroke-linejoin:miter;stroke-opacity:1"
             d="m 446.00012,358.86948 -43.48502,-4.8e-4 -5.0001,-10 h 43.29124 z"
             id="path4696"
             sodipodi:nodetypes="ccccc" />
          <path
             style="fill:#ffffff;fill-opacity:1;stroke:none;stroke-width:1px;stroke-linecap:butt;stroke-linejoin:miter;stroke-opacity:1"
             d="m 436.00012,338.86948 -43.48502,-4.8e-4 -5.0001,-10 h 43.29124 z"
             id="path5143"
             sodipodi:nodetypes="ccccc" />
        </g>
      </g>
      <g
         id="g1188">
        <g
           id="g1687">
          <path
             d="M 220.651,276.006 220.65086,238.7264 55.999999,162.44162 V 202.4825 L 179.229,257.711 56,312.595 v 6.274 h 72.13693 z"
             id="path17571"
             style="font-size:345.18px;line-height:1.25;font-family:Gotham;-inkscape-font-specification:Gotham;fill:#ffffff;stroke-width:8.62948"
             sodipodi:nodetypes="ccccccccc" />
          <path
             style="fill:#ffffff;fill-opacity:1;stroke:none;stroke-width:1px;stroke-linecap:butt;stroke-linejoin:miter;stroke-opacity:1"
             d="m 56,352.291 v -3.422 h 7.385931 z"
             id="path13998"
             sodipodi:nodetypes="cccc" />
          <path
             style="fill:#ffffff;fill-opacity:1;stroke:none;stroke-width:1px;stroke-linecap:butt;stroke-linejoin:miter;stroke-opacity:1"
             d="m 56,328.869 h 50.55326 l -21.583663,10 H 56 Z"
             id="path14579"
             sodipodi:nodetypes="ccccc" />
        </g>
      </g>
    </g>
  </g>
</svg>
