<?xml version="1.0" encoding="UTF-8" standalone="no"?>
<!-- Created with Inkscape (http://www.inkscape.org/) -->

<svg
   width="1194.426"
   height="512"
   viewBox="0 0 1194.426 512"
   version="1.1"
   id="svg5"
   inkscape:version="1.1.2 (b8e25be833, 2022-02-05)"
   sodipodi:docname="rext-dark.svg"
   inkscape:export-filename="F:\Takkun\Rext\logo\png\rext-dark.png"
   inkscape:export-xdpi="95.965759"
   inkscape:export-ydpi="95.965759"
   xmlns:inkscape="http://www.inkscape.org/namespaces/inkscape"
   xmlns:sodipodi="http://sodipodi.sourceforge.net/DTD/sodipodi-0.dtd"
   xmlns="http://www.w3.org/2000/svg"
   xmlns:svg="http://www.w3.org/2000/svg">
  <sodipodi:namedview
     id="namedview7"
     pagecolor="#505050"
     bordercolor="#eeeeee"
     borderopacity="1"
     inkscape:pageshadow="0"
     inkscape:pageopacity="0"
     inkscape:pagecheckerboard="0"
     inkscape:document-units="px"
     showgrid="false"
     inkscape:zoom="0.35355339"
     inkscape:cx="469.5189"
     inkscape:cy="354.9676"
     inkscape:window-width="1920"
     inkscape:window-height="991"
     inkscape:window-x="-9"
     inkscape:window-y="-9"
     inkscape:window-maximized="1"
     inkscape:current-layer="layer1">
    <inkscape:grid
       type="xygrid"
       id="grid824" />
  </sodipodi:namedview>
  <defs
     id="defs2" />
  <g
     inkscape:label="Layer 1"
     inkscape:groupmode="layer"
     id="layer1">
    <text
       xml:space="preserve"
       style="font-size:40px;line-height:1.25;font-family:sans-serif;-inkscape-font-specification:sans-serif"
       x="235"
       y="140"
       id="text6441"><tspan
         sodipodi:role="line"
         id="tspan6439"
         x="235"
         y="140" /></text>
    <g
       id="g1049">
      <g
         id="g1029">
        <g
           id="g5323"
           style="fill:#1a1a1a">
          <path
             d="M 424.83682,318.869 H 382.515 l -21.743,-43.486 -46.51826,-10e-5 V 318.869 H 276.837 l -2.3e-4,-185.73801 h 95.39643 c 15.05668,0 28.37173,3.08999 39.94514,9.26997 11.68578,6.06761 20.61866,14.55104 26.79864,25.45028 6.29235,10.78687 9.43852,23.14683 9.43852,37.07988 0,16.85449 -4.55071,30.95609 -13.65214,42.30478 -8.98906,11.23633 -20.73149,18.87703 -35.22636,22.9221 z M 411.16707,205.26821 c 0,-12.02287 -3.82035,-21.46139 -11.46105,-28.31555 -7.52834,-6.96652 -17.64104,-10.44978 -30.33809,-10.44978 h -55.11419 v 77.02503 h 55.11419 c 12.58469,0 22.69738,-3.42708 30.33809,-10.28124 7.6407,-6.85416 11.46105,-16.18031 11.46105,-27.97846 z"
             style="font-size:345.18px;line-height:1.25;font-family:'DIN Medium';-inkscape-font-specification:'DIN Medium, ';fill:#1a1a1a;fill-opacity:1;stroke-width:8.62948"
             id="path17573"
             sodipodi:nodetypes="cccccccsccscccscsccsss" />
          <path
             style="fill:#1a1a1a;fill-opacity:1;stroke:none;stroke-width:0.982023px;stroke-linecap:butt;stroke-linejoin:miter;stroke-opacity:1"
             d="m 276.83677,378.869 h 37.41697 v -10 H 277.25 Z"
             id="path1200" />
          <path
             style="fill:#1a1a1a;fill-opacity:1;stroke:none;stroke-width:0.982023px;stroke-linecap:butt;stroke-linejoin:miter;stroke-opacity:1"
             d="m 276.83677,358.869 h 37.41697 v -10 H 277.25 Z"
             id="path1548" />
          <path
             style="fill:#1a1a1a;fill-opacity:1;stroke:none;stroke-width:0.982023px;stroke-linecap:butt;stroke-linejoin:miter;stroke-opacity:1"
             d="m 276.83677,338.869 h 37.41697 v -10 H 277.25 Z"
             id="path1550" />
          <path
             style="fill:#1a1a1a;fill-opacity:1;stroke:none;stroke-width:1px;stroke-linecap:butt;stroke-linejoin:miter;stroke-opacity:1"
             d="m 456.00002,378.86948 -43.48502,-4.8e-4 -5.0001,-10 h 43.29124 z"
             id="path4328"
             sodipodi:nodetypes="ccccc" />
          <path
             style="fill:#1a1a1a;fill-opacity:1;stroke:none;stroke-width:1px;stroke-linecap:butt;stroke-linejoin:miter;stroke-opacity:1"
             d="m 446.00012,358.86948 -43.48502,-4.8e-4 -5.0001,-10 h 43.29124 z"
             id="path4696"
             sodipodi:nodetypes="ccccc" />
          <path
             style="fill:#1a1a1a;fill-opacity:1;stroke:none;stroke-width:1px;stroke-linecap:butt;stroke-linejoin:miter;stroke-opacity:1"
             d="m 436.00012,338.86948 -43.48502,-4.8e-4 -5.0001,-10 h 43.29124 z"
             id="path5143"
             sodipodi:nodetypes="ccccc" />
        </g>
      </g>
      <g
         id="g1019">
        <g
           id="g1687">
          <path
             d="M 220.651,276.006 220.65086,238.7264 55.999999,162.44162 V 202.4825 L 179.229,257.711 56,312.595 v 6.274 h 72.13693 z"
             id="path17571"
             style="font-size:345.18px;line-height:1.25;font-family:Gotham;-inkscape-font-specification:Gotham;fill:#1a1a1a;stroke-width:8.62948"
             sodipodi:nodetypes="ccccccccc" />
          <path
             style="fill:#1a1a1a;fill-opacity:1;stroke:none;stroke-width:1px;stroke-linecap:butt;stroke-linejoin:miter;stroke-opacity:1"
             d="m 56,352.291 v -3.422 h 7.385931 z"
             id="path13998"
             sodipodi:nodetypes="cccc" />
          <path
             style="fill:#1a1a1a;fill-opacity:1;stroke:none;stroke-width:1px;stroke-linecap:butt;stroke-linejoin:miter;stroke-opacity:1"
             d="m 56,328.869 h 50.55326 l -21.583663,10 H 56 Z"
             id="path14579"
             sodipodi:nodetypes="ccccc" />
        </g>
      </g>
      <path
         d="M 635.24722,300.13277 H 522.57535 q 0,15.21237 5.18224,26.07835 5.18224,10.69881 14.87804,16.7169 9.86296,5.85091 24.23949,5.85091 14.37653,0 23.23649,-4.01206 8.85995,-4.01205 18.89009,-13.70785 l 22.23347,20.72895 q -14.20936,14.20936 -28.75306,20.72895 -14.5437,6.35242 -36.27566,6.35242 -16.7169,0 -31.09343,-4.8479 -14.20936,-4.8479 -24.741,-15.37954 -10.53164,-10.53165 -16.38256,-27.58288 -5.85091,-17.05123 -5.85091,-41.12356 0,-27.91721 9.02712,-47.81032 9.19429,-19.8931 25.74402,-30.42475 16.54973,-10.53164 38.7832,-10.53164 22.73497,0 39.45187,10.53164 16.71689,10.53165 25.40968,29.58891 8.69278,18.89009 8.69278,43.46392 z m -34.60397,-24.2395 q -0.50151,-13.54069 -4.68073,-23.57082 -4.17922,-10.03014 -13.20635,-16.04822 -8.85995,-6.01808 -21.06328,-6.01808 -12.03617,0 -21.23046,6.01808 -9.02712,6.01808 -13.37352,16.04822 -2.34036,5.3494 -3.17621,9.52863 -0.66867,4.01205 -1.33735,14.04219 z"
         id="path13918"
         style="font-size:342.362px;line-height:1.25;font-family:'DIN Medium';-inkscape-font-specification:'DIN Medium, ';fill:#1a1a1a;stroke-width:8.55902" />
      <path
         d="m 818.4644,376.86331 h -42.12657 l -36.27566,-59.1778 -36.61,59.1778 H 661.3256 l 59.51214,-88.59954 -57.17178,-84.92182 h 42.12658 l 34.26963,56.5031 33.9353,-56.5031 h 42.12657 l -56.83744,84.92182 z"
         id="path13920"
         style="font-size:342.362px;line-height:1.25;font-family:'DIN Medium';-inkscape-font-specification:'DIN Medium, ';fill:#1a1a1a;stroke-width:8.55902" />
      <path
         d="m 926.28838,376.86331 h -20.89612 q -15.37954,0 -26.24552,-6.68676 -10.69881,-6.68675 -16.04822,-17.55274 -5.34941,-11.03315 -5.34941,-24.07232 v -95.45347 h -19.72593 v -26.74703 h 19.72593 v -52.65822 h 34.93831 v 52.65822 h 33.60096 v 26.74703 h -33.60096 v 93.78178 q 0,20.22744 19.22443,20.22744 h 14.37653 z"
         id="path13922"
         style="font-size:342.362px;line-height:1.25;font-family:'DIN Medium';-inkscape-font-specification:'DIN Medium, ';fill:#1a1a1a;stroke-width:8.55902" />
      <path
         d="M 1138.4258,435.70678 H 943.00526 v -23.90516 h 195.42054 z"
         id="path13924"
         style="font-size:342.362px;line-height:1.25;font-family:'DIN Medium';-inkscape-font-specification:'DIN Medium, ';fill:#1a1a1a;stroke-width:8.55902" />
    </g>
  </g>
</svg>
