<?xml version="1.0" encoding="UTF-8" standalone="no"?>
<!-- Created with Inkscape (http://www.inkscape.org/) -->

<svg
   width="4368.3789"
   height="1415.1801"
   viewBox="0 0 4368.3791 1415.18"
   version="1.1"
   id="svg5"
   inkscape:version="1.2.2 (732a01da63, 2022-12-09, custom)"
   sodipodi:docname="logotype.svg"
   xml:space="preserve"
   inkscape:export-filename="../9638e80c/logotype.png"
   inkscape:export-xdpi="96"
   inkscape:export-ydpi="96"
   xmlns:inkscape="http://www.inkscape.org/namespaces/inkscape"
   xmlns:sodipodi="http://sodipodi.sourceforge.net/DTD/sodipodi-0.dtd"
   xmlns="http://www.w3.org/2000/svg"
   xmlns:svg="http://www.w3.org/2000/svg"
   xmlns:rdf="http://www.w3.org/1999/02/22-rdf-syntax-ns#"
   xmlns:cc="http://creativecommons.org/ns#"
   xmlns:dc="http://purl.org/dc/elements/1.1/"><title
     id="title3511">AoHaru logotype</title><sodipodi:namedview
     id="namedview7"
     pagecolor="#505050"
     bordercolor="#ffffff"
     borderopacity="1"
     inkscape:showpageshadow="0"
     inkscape:pageopacity="0"
     inkscape:pagecheckerboard="1"
     inkscape:deskcolor="#505050"
     inkscape:document-units="px"
     showgrid="false"
     inkscape:zoom="0.08890625"
     inkscape:cx="1951.4939"
     inkscape:cy="500.52724"
     inkscape:window-width="1366"
     inkscape:window-height="691"
     inkscape:window-x="0"
     inkscape:window-y="0"
     inkscape:window-maximized="1"
     inkscape:current-layer="layer1" /><defs
     id="defs2" /><g
     inkscape:label="Layer 1"
     inkscape:groupmode="layer"
     id="layer1"><g
       id="g3878"><g
         id="g3860"><path
           d="M 839.4099,969.43405 H 754.6428 L 718.7246,864.19355 H 511.8354 l -35.9183,105.2405 H 391.15 L 583.3127,445.74576 h 63.9345 z M 696.4553,796.66718 617.0759,564.27602 535.5414,796.66718 Z"
           style="font-size:735.606px;font-family:'DIN Medium';-inkscape-font-specification:'DIN Medium, ';fill:#000000;fill-opacity:1;stroke-width:3.83128"
           id="path514" /><path
           d="m 1198.2333,782.65906 q 0,51.72229 -9.3388,86.20379 -9.3387,34.4816 -34.8407,60.7019 -42.3835,44.1795 -111.7058,44.1795 -68.6039,0 -110.9874,-44.1795 -25.1428,-26.2203 -34.8407,-60.7019 -9.3388,-34.8407 -9.3388,-86.20379 0,-50.28557 9.698,-85.48547 9.6979,-35.19989 34.4815,-61.06104 12.2122,-12.93058 28.3754,-22.62851 16.1632,-9.69793 37.355,-15.44485 21.551,-6.10611 45.257,-6.10611 36.9958,0 65.0121,12.21221 28.0162,12.21221 46.6937,31.96726 25.1428,26.22033 34.4815,61.06104 9.698,34.48154 9.698,85.48547 z m -75.0692,0 q 0,-36.63663 -5.0285,-61.42023 -5.0286,-25.14278 -20.8326,-40.94682 -20.4735,-21.19177 -54.955,-21.19177 -33.404,0 -54.5957,21.19177 -15.4449,15.80404 -20.4735,40.94682 -5.0285,24.7836 -5.0285,61.42023 0,36.27749 5.0285,61.42019 5.0286,24.7836 20.4735,40.5877 22.2693,22.2693 54.5957,22.2693 33.404,0 54.955,-22.2693 15.804,-15.8041 20.8326,-40.5877 5.0285,-25.1427 5.0285,-61.42019 z"
           style="font-size:735.606px;font-family:'DIN Medium';-inkscape-font-specification:'DIN Medium, ';fill:#000000;fill-opacity:1;stroke-width:3.83128"
           id="path516" /><path
           d="M 1680.2563,969.43405 H 1600.877 V 740.63469 h -212.6361 v 228.79936 h -79.7386 V 445.74576 h 79.7386 V 669.15735 H 1600.877 V 445.74576 h 79.3793 z"
           style="font-size:735.606px;font-family:'DIN Medium';-inkscape-font-specification:'DIN Medium, ';fill:#000000;fill-opacity:1;stroke-width:3.83128"
           id="path518" /><path
           d="m 2082.5408,969.43405 h -73.6325 v -33.7632 q -20.4734,20.4734 -42.7427,29.453 -22.2693,8.6204 -56.3917,8.6204 -33.7631,0 -58.5467,-8.2612 -24.7836,-8.6204 -41.6652,-25.502 -29.453,-30.5305 -29.453,-80.0977 0,-31.9673 14.7265,-56.03252 14.7265,-24.42441 43.4611,-37.71417 29.0938,-13.64894 70.3998,-13.64894 h 98.7752 V 725.9082 q 0,-35.91826 -19.3959,-52.79984 -19.3958,-16.88159 -62.1386,-16.88159 -31.2488,0 -48.8488,7.90202 -17.2408,7.90202 -33.0448,28.01625 l -49.208,-46.33456 q 25.5019,-30.17134 56.0325,-42.02437 30.5305,-11.85303 77.9426,-11.85303 153.7302,0 153.7302,128.2282 z m -75.0692,-134.6935 v -30.1714 h -87.6406 q -32.6856,0 -49.9263,14.0082 -16.8816,14.0081 -16.8816,39.8692 0,52.7999 68.2447,52.7999 24.0652,0 40.2284,-3.951 16.1632,-4.3102 29.8122,-17.2408 16.1632,-16.1632 16.1632,-55.3141 z"
           style="font-size:735.606px;font-family:'DIN Medium';-inkscape-font-specification:'DIN Medium, ';fill:#000000;fill-opacity:1;stroke-width:3.83128"
           id="path520" /><path
           d="m 2459.6825,627.49216 -56.7508,56.39168 q -12.9306,-13.28976 -24.7836,-19.03668 -11.8531,-5.74692 -30.8898,-5.74692 -20.1142,0 -37.3549,10.41629 -16.8816,10.4163 -26.9387,29.45298 -10.0572,18.67749 -10.0572,43.82028 v 226.64426 h -75.0691 V 596.60246 h 73.6324 v 40.22845 q 14.7265,-20.47341 41.306,-32.68562 26.9387,-12.21221 57.8284,-12.21221 27.6571,0 48.4897,8.2612 21.1917,7.90202 40.5876,27.29788 z"
           style="font-size:735.606px;font-family:'DIN Medium';-inkscape-font-specification:'DIN Medium, ';fill:#000000;fill-opacity:1;stroke-width:3.83128"
           id="path522" /><path
           d="m 2819.2242,969.43405 h -73.2733 v -37.355 q -19.0366,20.1142 -45.257,30.8897 -25.8611,10.7755 -54.2366,10.7755 -56.3915,0 -91.9506,-33.7632 -20.4734,-20.1142 -29.0938,-45.6162 -8.2612,-25.8611 -8.2612,-59.6243 V 596.60246 h 75.0692 v 227.00339 q 0,41.6652 20.8326,62.4978 20.8325,20.8326 53.8773,20.8326 33.7631,0 55.3141,-20.8326 21.9101,-21.1918 21.9101,-62.4978 V 596.60246 h 75.0692 z"
           style="font-size:735.606px;font-family:'DIN Medium';-inkscape-font-specification:'DIN Medium, ';fill:#000000;fill-opacity:1;stroke-width:3.83128"
           id="path524" /></g><g
         id="g3865"><path
           d="m 3203.5496,969.43405 h -79.7385 V 445.74576 h 79.7385 z"
           style="font-size:735.606px;font-family:'DIN Medium';-inkscape-font-specification:'DIN Medium, ';fill:#0066fe;fill-opacity:1;stroke-width:3.83128"
           id="path526" /><path
           d="m 3553.3935,391.15 -209.4034,632.8798 h -72.1957 L 3481.5571,391.15 Z"
           style="font-size:735.606px;font-family:'DIN Medium';-inkscape-font-specification:'DIN Medium, ';fill:#0066fe;fill-opacity:1;stroke-width:3.83128"
           id="path528" /><path
           d="m 3977.229,707.58989 q 0,62.13859 -2.5143,95.1834 -2.1551,32.68566 -12.9306,61.77936 -10.7754,28.7347 -34.4815,53.5183 -56.3917,55.6733 -138.2853,55.6733 -81.8936,0 -137.567,-55.6733 -24.4244,-25.1428 -35.1999,-53.5183 -10.7754,-28.3754 -13.2897,-61.42018 -2.5143,-33.40399 -2.5143,-95.54258 0,-47.77129 1.0776,-75.78753 1.4367,-28.01625 5.7469,-51.36312 4.6694,-23.34687 14.7265,-43.4611 10.4163,-20.47341 29.4529,-39.86927 55.6734,-55.67331 137.567,-55.67331 81.8936,0 138.2853,55.67331 24.0652,25.14279 34.4815,53.8774 10.7755,28.37542 12.9306,61.42022 2.5143,33.04481 2.5143,95.1834 z m -79.3794,0 q 0,-78.30181 -6.1061,-110.26907 -5.7469,-31.96725 -24.7836,-52.44066 -13.6489,-14.72649 -34.8407,-23.34687 -20.8326,-8.97957 -43.1019,-8.97957 -22.6285,0 -43.8203,8.97957 -20.8326,8.62038 -34.4815,23.34687 -19.0367,21.19178 -25.1428,52.79985 -5.7469,31.60807 -5.7469,109.90988 0,41.66518 1.0775,66.80797 1.4368,24.7836 5.0286,43.46109 3.5918,18.6775 8.6204,29.0938 5.0285,10.4163 16.1632,23.3469 14.3673,15.0856 34.8407,23.706 20.8326,8.6204 43.4611,8.6204 47.4121,0 77.9426,-32.3264 12.9306,-14.0082 19.3959,-31.9673 6.8245,-17.9591 8.9795,-48.84882 2.5143,-30.88971 2.5143,-81.89364 z"
           style="font-size:735.606px;font-family:'DIN Medium';-inkscape-font-specification:'DIN Medium, ';fill:#0066fe;fill-opacity:1;stroke-width:3.83128"
           id="path530" /></g></g><text
       xml:space="preserve"
       style="font-size:192px;fill:#000000"
       x="1888.6783"
       y="-1066.6067"
       id="text251"><tspan
         sodipodi:role="line"
         id="tspan249"
         x="1888.6783"
         y="-1066.6067" /></text></g><metadata
     id="metadata3509"><rdf:RDF><cc:Work
         rdf:about=""><cc:license
           rdf:resource="http://creativecommons.org/licenses/by-nc-nd/4.0/" /><dc:title>AoHaru logotype</dc:title><dc:date>2023/08/02</dc:date><dc:creator><cc:Agent><dc:title>Takkun</dc:title></cc:Agent></dc:creator></cc:Work><cc:License
         rdf:about="http://creativecommons.org/licenses/by-nc-nd/4.0/"><cc:permits
           rdf:resource="http://creativecommons.org/ns#Reproduction" /><cc:permits
           rdf:resource="http://creativecommons.org/ns#Distribution" /><cc:requires
           rdf:resource="http://creativecommons.org/ns#Notice" /><cc:requires
           rdf:resource="http://creativecommons.org/ns#Attribution" /><cc:prohibits
           rdf:resource="http://creativecommons.org/ns#CommercialUse" /></cc:License></rdf:RDF></metadata></svg>
